<?xml version="1.0" encoding="utf-8"?>
<!-- Svg Vector Icons : http://www.onlinewebfonts.com/icon -->
<!DOCTYPE svg PUBLIC "-//W3C//DTD SVG 1.1//EN" "http://www.w3.org/Graphics/SVG/1.1/DTD/svg11.dtd">
<svg version="1.1" xmlns="http://www.w3.org/2000/svg" xmlns:xlink="http://www.w3.org/1999/xlink" x="0px" y="0px" viewBox="0 0 1000 1000" enable-background="new 0 0 1000 1000" xml:space="preserve">
<metadata> Svg Vector Icons : http://www.onlinewebfonts.com/icon </metadata>
<g><g transform="translate(0.000000,511.000000) scale(0.100000,-0.100000)"><path d="M3337.4,3508.8c-86.2-40.7-481.1-416.5-1635-1558.4C864.6,1122.1,163.2,411.2,141.6,370.5C84.2,265.2,86.6,54.5,146.4-58C211.1-180.1,3165-3227.5,3270.4-3282.5c193.9-98.1,385.4-76.6,548.2,62.3c170,146,220.2,428.5,105.3,608c-23.9,35.9-512.3,548.2-1084.4,1137.1C2267.4-886.3,1795.8-395.5,1791-383.6c-4.8,12,1663.7,21.5,3858.8,21.5c4206,0,3959.4-7.2,4105.4,126.9c131.7,119.7,184.3,380.6,112.5,550.6c-38.3,91-138.8,196.3-241.8,251.4c-64.6,38.3-402.1,40.7-3990.5,52.7l-3916.3,12l775.6,754.1C4139.3,2982.1,3981.3,2817,4012.4,2965.4c38.3,172.4,2.4,304-112.5,433.3C3744.3,3568.6,3545.6,3609.3,3337.4,3508.8z"/></g></g>
</svg>