<?xml version="1.0" encoding="utf-8"?>
<!-- Svg Vector Icons : http://www.onlinewebfonts.com/icon -->
<!DOCTYPE svg PUBLIC "-//W3C//DTD SVG 1.1//EN" "http://www.w3.org/Graphics/SVG/1.1/DTD/svg11.dtd">
<svg version="1.1" xmlns="http://www.w3.org/2000/svg" xmlns:xlink="http://www.w3.org/1999/xlink" x="0px" y="0px" viewBox="0 0 1000 1000" enable-background="new 0 0 1000 1000" xml:space="preserve">
<metadata> Svg Vector Icons : http://www.onlinewebfonts.com/icon </metadata>
<g><g transform="translate(0.000000,511.000000) scale(0.100000,-0.100000)"><path d="M4796.5,4964.9c-129.2-71.8-3136.8-3172.7-3194.3-3294.8c-86.1-179.5-31.1-402,131.6-545.6c186.6-162.7,461.8-157.9,634.1,12c50.2,47.9,557.5,571.9,1129.4,1162.9l1040.8,1071.9l12-3907.3c14.4-4316.5,0-3967.1,160.3-4115.5c119.6-112.5,215.3-148.4,370.9-136.4c172.3,12,313.4,102.9,394.8,256l55,105.3v3837.9c0,2108,7.2,3835.5,14.3,3835.5s492.9-473.8,1081.5-1052.8c949.9-937.9,1079.1-1055.2,1184.4-1091.1c208.2-69.4,435.5,7.2,559.9,189c59.8,86.2,67,117.2,67,280c0,160.3-7.2,196.2-59.8,268c-95.7,131.6-3103.3,3065.1-3189.5,3110.5C5052.5,5024.7,4911.3,5029.5,4796.5,4964.9z"/></g></g>
</svg>