# Blender v2.93.1 OBJ File: ''
# www.blender.org
mtllib bola.mtl
o Sphere
v 0.184910 0.939693 -0.287726
v 0.347517 0.766044 -0.540747
v 0.468209 0.500000 -0.728547
v 0.532427 0.173648 -0.828473
v 0.532427 -0.173648 -0.828473
v 0.468209 -0.500000 -0.728547
v 0.347517 -0.766044 -0.540747
v 0.184910 -0.939693 -0.287726
v 0.311113 0.939693 -0.142080
v 0.584700 0.766044 -0.267024
v 0.787764 0.500000 -0.359760
v 0.895813 0.173648 -0.409104
v 0.895813 -0.173648 -0.409104
v 0.787764 -0.500000 -0.359760
v 0.584700 -0.766044 -0.267024
v 0.311113 -0.939693 -0.142080
v 0.338539 0.939693 0.048675
v 0.636245 0.766044 0.091478
v 0.857211 0.500000 0.123248
v 0.974784 0.173648 0.140153
v 0.974784 -0.173648 0.140153
v 0.857211 -0.500000 0.123248
v 0.636245 -0.766044 0.091478
v 0.338539 -0.939693 0.048675
v 0.258482 0.939693 0.223976
v 0.485787 0.766044 0.420936
v 0.654498 0.500000 0.567126
v 0.744268 0.173648 0.644912
v 0.744268 -0.173648 0.644912
v 0.654498 -0.500000 0.567126
v 0.485787 -0.766044 0.420936
v 0.258482 -0.939693 0.223976
v 0.096358 0.939693 0.328166
v 0.181094 0.766044 0.616750
v 0.243988 0.500000 0.830945
v 0.277453 0.173648 0.944916
v 0.277453 -0.173648 0.944916
v 0.243988 -0.500000 0.830945
v 0.181094 -0.766044 0.616750
v 0.096358 -0.939693 0.328166
v -0.000000 1.000000 0.000000
v -0.096358 0.939693 0.328166
v -0.181094 0.766044 0.616750
v -0.243987 0.500000 0.830945
v -0.277452 0.173648 0.944916
v -0.277452 -0.173648 0.944916
v -0.243987 -0.500000 0.830945
v -0.181094 -0.766044 0.616750
v -0.096358 -0.939693 0.328166
v -0.258482 0.939693 0.223976
v -0.485786 0.766044 0.420936
v -0.654498 0.500000 0.567126
v -0.744268 0.173648 0.644912
v -0.744268 -0.173648 0.644912
v -0.654498 -0.500000 0.567126
v -0.485786 -0.766044 0.420937
v -0.258482 -0.939693 0.223976
v 0.000000 -1.000000 0.000000
v -0.338539 0.939693 0.048675
v -0.636245 0.766044 0.091478
v -0.857210 0.500000 0.123249
v -0.974783 0.173648 0.140153
v -0.974783 -0.173648 0.140153
v -0.857210 -0.500000 0.123249
v -0.636245 -0.766044 0.091478
v -0.338539 -0.939693 0.048675
v -0.311112 0.939693 -0.142080
v -0.584700 0.766044 -0.267023
v -0.787764 0.500000 -0.359760
v -0.895812 0.173648 -0.409103
v -0.895812 -0.173648 -0.409103
v -0.787764 -0.500000 -0.359760
v -0.584700 -0.766044 -0.267023
v -0.311113 -0.939693 -0.142080
v -0.184910 0.939693 -0.287725
v -0.347517 0.766044 -0.540747
v -0.468209 0.500000 -0.728547
v -0.532427 0.173648 -0.828472
v -0.532427 -0.173648 -0.828472
v -0.468209 -0.500000 -0.728547
v -0.347517 -0.766044 -0.540747
v -0.184910 -0.939693 -0.287726
v -0.000000 0.939693 -0.342020
v -0.000000 0.766044 -0.642787
v -0.000000 0.500000 -0.866025
v -0.000000 0.173648 -0.984807
v -0.000000 -0.173648 -0.984807
v -0.000000 -0.500000 -0.866025
v -0.000000 -0.766044 -0.642787
v -0.000000 -0.939693 -0.342020
vt 0.500000 0.994690
vt 0.500000 0.864166
vt 0.701120 0.804505
vt 0.770968 0.914309
vt 0.500000 0.864304
vt 0.500000 0.994877
vt 0.771070 0.914465
vt 0.701196 0.804620
vt 0.500000 1.064140
vt 0.808134 0.972734
vt 0.500000 0.688312
vt 0.500000 0.488338
vt 0.607014 0.656567
vt 0.500000 0.688383
vt 0.607054 0.656626
vt 0.500000 1.064353
vt 0.500000 1.064353
vt 0.808250 0.972912
vt 0.808250 0.972912
vt 0.500000 0.488334
vt 0.680051 0.571410
vt 0.838513 0.644517
vt 0.680119 0.571437
vt 1.018632 0.727621
vt 1.018632 0.727621
vt 0.838386 0.644463
vt 0.956078 0.698759
vt 0.955906 0.698685
vt 1.018437 0.727535
vt 0.695998 0.459864
vt 1.064353 0.406358
vt 0.996284 0.416245
vt 0.868216 0.434852
vt 0.996097 0.416277
vt 0.868355 0.434828
vt 1.064140 0.406393
vt 0.695924 0.459879
vt 1.064353 0.406358
vt 0.878923 0.156619
vt 0.781247 0.242126
vt 0.878780 0.156748
vt 0.930733 0.111268
vt 0.649592 0.357383
vt 0.649648 0.357329
vt 0.930895 0.111121
vt 0.930895 0.111121
vt 0.781141 0.242223
vt 0.660632 -0.064353
vt 0.660632 -0.064353
vt 0.555766 0.296464
vt 0.604805 0.127733
vt 0.555787 0.296388
vt 0.641257 0.002309
vt 0.641204 0.002497
vt 0.604845 0.127593
vt 0.660571 -0.064140
vt 0.395195 0.127733
vt 0.358796 0.002497
vt 0.358743 0.002309
vt 0.395155 0.127593
vt 0.339429 -0.064140
vt 0.444234 0.296464
vt 0.444213 0.296388
vt 0.339368 -0.064353
vt 0.339368 -0.064353
vt 0.350408 0.357383
vt 0.218753 0.242126
vt 0.350351 0.357329
vt 0.069105 0.111121
vt 0.069105 0.111121
vt 0.218859 0.242223
vt 0.121077 0.156618
vt 0.121220 0.156748
vt 0.069267 0.111268
vt -0.064353 0.406357
vt 0.003716 0.416245
vt 0.131783 0.434852
vt 0.003903 0.416277
vt 0.131645 0.434827
vt -0.064140 0.406393
vt 0.304076 0.459879
vt 0.304002 0.459864
vt -0.064353 0.406357
vt 0.044094 0.698684
vt -0.018437 0.727535
vt 0.319948 0.571410
vt 0.161487 0.644517
vt 0.319881 0.571437
vt -0.018633 0.727621
vt -0.018633 0.727621
vt 0.161614 0.644463
vt 0.043922 0.698759
vt 0.392986 0.656567
vt 0.298880 0.804505
vt 0.392946 0.656626
vt 0.191750 0.972912
vt 0.228929 0.914465
vt 0.229032 0.914309
vt 0.298804 0.804620
vt 0.191866 0.972734
vt 0.191750 0.972912
vn 0.2194 0.6271 -0.7474
vn 0.2194 -0.6271 -0.7474
vn 0.2660 0.3297 -0.9058
vn 0.0509 0.9835 -0.1734
vn 0.1453 -0.8568 -0.4947
vn 0.2817 0.0000 -0.9595
vn 0.1453 0.8568 -0.4947
vn 0.0509 -0.9835 -0.1734
vn 0.2660 -0.3297 -0.9058
vn 0.1366 0.9835 -0.1184
vn 0.3897 -0.8568 -0.3376
vn 0.7557 0.0000 -0.6549
vn 0.3897 0.8568 -0.3376
vn 0.1366 -0.9835 -0.1184
vn 0.7135 -0.3297 -0.6182
vn 0.5887 0.6271 -0.5101
vn 0.5887 -0.6271 -0.5101
vn 0.7135 0.3297 -0.6182
vn 0.1789 -0.9835 -0.0257
vn 0.9345 -0.3297 -0.1344
vn 0.7710 0.6271 -0.1109
vn 0.7710 -0.6271 -0.1109
vn 0.9345 0.3297 -0.1344
vn 0.1789 0.9835 -0.0257
vn 0.5103 -0.8568 -0.0734
vn 0.9898 0.0000 -0.1423
vn 0.5103 0.8568 -0.0734
vn 0.7085 -0.6271 0.3236
vn 0.8588 0.3297 0.3922
vn 0.1644 0.9835 0.0751
vn 0.4690 -0.8568 0.2142
vn 0.9096 0.0000 0.4154
vn 0.4690 0.8568 0.2142
vn 0.1644 -0.9835 0.0751
vn 0.8588 -0.3297 0.3922
vn 0.7085 0.6271 0.3236
vn 0.5406 0.0000 0.8413
vn 0.2787 0.8568 0.4337
vn 0.0977 -0.9835 0.1521
vn 0.5104 -0.3297 0.7942
vn 0.4211 0.6271 0.6553
vn 0.4211 -0.6271 0.6553
vn 0.5104 0.3297 0.7942
vn 0.0977 0.9835 0.1521
vn 0.2787 -0.8568 0.4337
vn 0.0000 0.6271 0.7789
vn 0.0000 -0.6271 0.7789
vn 0.0000 0.3297 0.9441
vn 0.0000 0.9835 0.1807
vn 0.0000 -0.8568 0.5156
vn 0.0000 0.0000 1.0000
vn 0.0000 0.8568 0.5156
vn 0.0000 -0.9835 0.1807
vn 0.0000 -0.3297 0.9441
vn -0.0977 0.9835 0.1521
vn -0.2787 -0.8568 0.4337
vn -0.5406 0.0000 0.8413
vn -0.2787 0.8568 0.4337
vn -0.0977 -0.9835 0.1521
vn -0.5104 -0.3297 0.7942
vn -0.4211 0.6271 0.6553
vn -0.4211 -0.6271 0.6553
vn -0.5104 0.3297 0.7942
vn -0.8588 -0.3297 0.3922
vn -0.7085 0.6271 0.3236
vn -0.7085 -0.6271 0.3236
vn -0.8588 0.3297 0.3922
vn -0.1644 0.9835 0.0751
vn -0.4690 -0.8568 0.2142
vn -0.9096 0.0000 0.4154
vn -0.4690 0.8568 0.2142
vn -0.1644 -0.9835 0.0751
vn -0.9345 0.3297 -0.1344
vn -0.1789 0.9835 -0.0257
vn -0.5103 -0.8568 -0.0734
vn -0.9898 0.0000 -0.1423
vn -0.5103 0.8568 -0.0734
vn -0.1789 -0.9835 -0.0257
vn -0.9345 -0.3297 -0.1344
vn -0.7710 0.6271 -0.1109
vn -0.7710 -0.6271 -0.1109
vn -0.3897 0.8568 -0.3376
vn -0.1366 -0.9835 -0.1184
vn -0.7135 -0.3297 -0.6182
vn -0.5887 0.6271 -0.5101
vn -0.5887 -0.6271 -0.5101
vn -0.7135 0.3297 -0.6182
vn -0.1366 0.9835 -0.1184
vn -0.3897 -0.8568 -0.3376
vn -0.7557 0.0000 -0.6549
vn -0.2194 -0.6271 -0.7474
vn -0.2660 0.3297 -0.9058
vn -0.0509 0.9835 -0.1734
vn -0.1453 -0.8568 -0.4947
vn -0.2817 0.0000 -0.9595
vn -0.1453 0.8568 -0.4947
vn -0.0509 -0.9835 -0.1734
vn -0.2660 -0.3297 -0.9058
vn -0.2194 0.6271 -0.7474
usemtl Material.001
s off
f 85/1/1 84/2/1 2/3/1 3/4/1
f 89/5/2 88/6/2 6/7/2 7/8/2
f 86/9/3 85/1/3 3/4/3 4/10/3
f 83/11/4 41/12/4 1/13/4
f 90/14/5 89/5/5 7/8/5 8/15/5
f 87/16/6 86/17/6 4/18/6 5/19/6
f 84/2/7 83/11/7 1/13/7 2/3/7
f 58/20/8 90/14/8 8/15/8
f 88/6/9 87/16/9 5/19/9 6/7/9
f 1/13/10 41/12/10 9/21/10
f 8/15/11 7/8/11 15/22/11 16/23/11
f 5/19/12 4/18/12 12/24/12 13/25/12
f 2/3/13 1/13/13 9/21/13 10/26/13
f 58/20/14 8/15/14 16/23/14
f 6/7/15 5/19/15 13/25/15 14/27/15
f 3/4/16 2/3/16 10/26/16 11/28/16
f 7/8/17 6/7/17 14/27/17 15/22/17
f 4/10/18 3/4/18 11/28/18 12/29/18
f 58/20/19 16/23/19 24/30/19
f 14/27/20 13/25/20 21/31/20 22/32/20
f 11/28/21 10/26/21 18/33/21 19/34/21
f 15/22/22 14/27/22 22/32/22 23/35/22
f 12/29/23 11/28/23 19/34/23 20/36/23
f 9/21/24 41/12/24 17/37/24
f 16/23/25 15/22/25 23/35/25 24/30/25
f 13/25/26 12/24/26 20/38/26 21/31/26
f 10/26/27 9/21/27 17/37/27 18/33/27
f 23/35/28 22/32/28 30/39/28 31/40/28
f 20/36/29 19/34/29 27/41/29 28/42/29
f 17/37/30 41/12/30 25/43/30
f 24/30/31 23/35/31 31/40/31 32/44/31
f 21/31/32 20/38/32 28/45/32 29/46/32
f 18/33/33 17/37/33 25/43/33 26/47/33
f 58/20/34 24/30/34 32/44/34
f 22/32/35 21/31/35 29/46/35 30/39/35
f 19/34/36 18/33/36 26/47/36 27/41/36
f 29/46/37 28/45/37 36/48/37 37/49/37
f 26/47/38 25/43/38 33/50/38 34/51/38
f 58/20/39 32/44/39 40/52/39
f 30/39/40 29/46/40 37/49/40 38/53/40
f 27/41/41 26/47/41 34/51/41 35/54/41
f 31/40/42 30/39/42 38/53/42 39/55/42
f 28/42/43 27/41/43 35/54/43 36/56/43
f 25/43/44 41/12/44 33/50/44
f 32/44/45 31/40/45 39/55/45 40/52/45
f 35/54/46 34/51/46 43/57/46 44/58/46
f 39/55/47 38/53/47 47/59/47 48/60/47
f 36/56/48 35/54/48 44/58/48 45/61/48
f 33/50/49 41/12/49 42/62/49
f 40/52/50 39/55/50 48/60/50 49/63/50
f 37/49/51 36/48/51 45/64/51 46/65/51
f 34/51/52 33/50/52 42/62/52 43/57/52
f 58/20/53 40/52/53 49/63/53
f 38/53/54 37/49/54 46/65/54 47/59/54
f 42/62/55 41/12/55 50/66/55
f 49/63/56 48/60/56 56/67/56 57/68/56
f 46/65/57 45/64/57 53/69/57 54/70/57
f 43/57/58 42/62/58 50/66/58 51/71/58
f 58/20/59 49/63/59 57/68/59
f 47/59/60 46/65/60 54/70/60 55/72/60
f 44/58/61 43/57/61 51/71/61 52/73/61
f 48/60/62 47/59/62 55/72/62 56/67/62
f 45/61/63 44/58/63 52/73/63 53/74/63
f 55/72/64 54/70/64 63/75/64 64/76/64
f 52/73/65 51/71/65 60/77/65 61/78/65
f 56/67/66 55/72/66 64/76/66 65/79/66
f 53/74/67 52/73/67 61/78/67 62/80/67
f 50/66/68 41/12/68 59/81/68
f 57/68/69 56/67/69 65/79/69 66/82/69
f 54/70/70 53/69/70 62/83/70 63/75/70
f 51/71/71 50/66/71 59/81/71 60/77/71
f 58/20/72 57/68/72 66/82/72
f 62/80/73 61/78/73 69/84/73 70/85/73
f 59/81/74 41/12/74 67/86/74
f 66/82/75 65/79/75 73/87/75 74/88/75
f 63/75/76 62/83/76 70/89/76 71/90/76
f 60/77/77 59/81/77 67/86/77 68/91/77
f 58/20/78 66/82/78 74/88/78
f 64/76/79 63/75/79 71/90/79 72/92/79
f 61/78/80 60/77/80 68/91/80 69/84/80
f 65/79/81 64/76/81 72/92/81 73/87/81
f 68/91/82 67/86/82 75/93/82 76/94/82
f 58/20/83 74/88/83 82/95/83
f 72/92/84 71/90/84 79/96/84 80/97/84
f 69/84/85 68/91/85 76/94/85 77/98/85
f 73/87/86 72/92/86 80/97/86 81/99/86
f 70/85/87 69/84/87 77/98/87 78/100/87
f 67/86/88 41/12/88 75/93/88
f 74/88/89 73/87/89 81/99/89 82/95/89
f 71/90/90 70/89/90 78/101/90 79/96/90
f 81/99/91 80/97/91 88/6/91 89/5/91
f 78/100/92 77/98/92 85/1/92 86/9/92
f 75/93/93 41/12/93 83/11/93
f 82/95/94 81/99/94 89/5/94 90/14/94
f 79/96/95 78/101/95 86/17/95 87/16/95
f 76/94/96 75/93/96 83/11/96 84/2/96
f 58/20/97 82/95/97 90/14/97
f 80/97/98 79/96/98 87/16/98 88/6/98
f 77/98/99 76/94/99 84/2/99 85/1/99
