<?xml version="1.0" encoding="utf-8"?>
<!-- Svg Vector Icons : http://www.onlinewebfonts.com/icon -->
<!DOCTYPE svg PUBLIC "-//W3C//DTD SVG 1.1//EN" "http://www.w3.org/Graphics/SVG/1.1/DTD/svg11.dtd">
<svg version="1.1" xmlns="http://www.w3.org/2000/svg" xmlns:xlink="http://www.w3.org/1999/xlink" x="0px" y="0px" viewBox="0 0 1000 1000" enable-background="new 0 0 1000 1000" xml:space="preserve">
<metadata> Svg Vector Icons : http://www.onlinewebfonts.com/icon </metadata>
<g><path d="M224.4,500c27.1,0,51.2,12,68,30.6l0.2-0.2l115.5,128.3V101.9c0-50.7,41.1-91.9,91.9-91.9c50.7,0,91.9,41.1,91.9,91.9v556.8l115.5-128.3l0.2,0.2c16.8-18.7,40.9-30.6,68-30.6c50.7,0,91.9,41.1,91.9,91.9c0,23.6-9.2,45-23.8,61.2l0.2,0.2L568.3,959.6l-0.2-0.2C551.2,978,527.1,990,500,990c-27.1,0-51.2-12-68-30.6l-0.2,0.2L156.1,653.3l0.2-0.2c-14.7-16.3-23.8-37.6-23.8-61.2C132.5,541.1,173.6,500,224.4,500z"/></g>
</svg>