# Blender v2.93.1 OBJ File: ''
# www.blender.org
mtllib laberinto01.mtl
o Cube_Cube.001
v -3.988779 -0.974841 3.819512
v -3.988779 1.025159 3.819512
v -3.988779 -0.974841 -4.201227
v -3.988779 1.025159 -4.201227
v 4.045570 -0.974841 3.819512
v 4.045570 1.025159 3.819512
v 4.045570 -0.974841 -4.201227
v 4.045570 1.025159 -4.201227
v -0.252355 1.865385 0.735655
v -3.988779 -0.308175 3.819512
v -3.988779 0.358492 3.819512
v 4.045570 0.358492 3.819512
v 4.045570 -0.308175 3.819512
v 1.818454 -0.974841 3.819512
v 2.807966 -1.000000 3.819512
v 2.807966 1.025159 3.819512
v 1.818454 1.025159 3.819512
v 2.807966 -0.308175 3.819512
v 1.818454 -0.308175 3.819512
v 2.807966 0.358492 3.819512
v 1.818454 0.358492 3.819512
v -3.988779 0.358492 -4.201227
v -3.988779 -0.308175 -4.201227
v 1.742921 0.358492 -4.201227
v -2.120660 -0.974841 -4.201227
v -2.120660 1.025159 -4.201227
v -0.559728 1.025159 -4.201227
v 4.045570 0.358492 -4.201227
v 4.045570 -0.948297 -4.201227
v -2.120660 -0.308175 -4.201227
v -0.559728 -0.948297 -4.201227
v -2.120660 0.358492 -4.201227
v -0.559728 0.358492 -4.201227
v 1.742921 -0.294903 -4.201227
v -0.559728 -0.294903 -4.201227
v 1.742921 -0.948297 -4.201227
v 4.045570 -0.294903 -4.201227
v -3.903564 -0.974841 3.734442
v -3.903564 1.025159 3.734442
v -3.903564 -0.974841 -4.116157
v -3.903564 1.025159 -4.116157
v 3.962537 -0.974841 3.732320
v 3.960356 1.025159 3.734442
v 3.925056 -0.974841 -4.201227
v 3.960356 1.025159 -4.116157
v -0.247879 1.835633 0.720880
v -3.903564 -0.308175 3.734442
v -3.903564 0.358492 3.734442
v 3.960356 0.358492 3.734442
v 3.960356 -0.308175 3.734442
v 1.818454 -0.974841 3.699201
v 2.807966 -1.000000 3.699201
v 2.807966 1.025159 3.699201
v 1.818454 1.025159 3.699201
v 2.807966 -0.308175 3.699201
v 1.818454 -0.308175 3.699201
v 2.807966 0.358492 3.699201
v 1.818454 0.358492 3.699201
v -3.903564 0.358492 -4.116157
v -3.903564 -0.308175 -4.116157
v 1.742921 0.358492 -4.080916
v -2.120660 -0.974841 -4.080916
v -2.120660 1.025159 -4.080916
v -0.559728 1.025159 -4.080916
v 3.960356 0.358492 -4.116157
v 3.937781 -0.948297 -4.147426
v -2.120660 -0.308175 -4.080916
v -0.559728 -0.948297 -4.080916
v -2.120660 0.358492 -4.080916
v -0.559728 0.358492 -4.080916
v 1.742921 -0.294903 -4.080916
v -0.559728 -0.294903 -4.080916
v 1.742921 -0.948297 -4.080916
v 3.960356 -0.294903 -4.116157
vt 0.541667 0.250000
vt 0.458333 0.250000
vt 0.541667 0.000000
vt 0.625000 0.500000
vt 0.541667 0.500000
vt 0.541667 0.458333
vt 0.541667 0.750000
vt 0.458333 0.750000
vt 0.500000 0.500000
vt 0.625000 0.916667
vt 0.541667 1.000000
vt 0.541667 0.916667
vt 0.458333 0.916667
vt 0.375000 1.000000
vt 0.375000 0.916667
vt 0.458333 1.000000
vt 0.375000 0.750000
vt 0.458333 0.833333
vt 0.375000 0.833333
vt 0.625000 0.750000
vt 0.541667 0.833333
vt 0.500000 0.458333
vt 0.375000 0.333333
vt 0.375000 0.250000
vt 0.458333 0.333333
vt 0.625000 0.250000
vt 0.541667 0.333333
vt 0.541667 0.416667
vt 0.500000 0.416667
vt 0.458333 0.458333
vt 0.458333 0.416667
vt 0.458333 0.500000
vt 0.541667 0.000000
vt 0.458333 0.000000
vt 0.458333 0.250000
vt 0.541667 0.458333
vt 0.625000 0.500000
vt 0.625000 0.416667
vt 0.458333 0.750000
vt 0.500000 0.500000
vt 0.458333 0.500000
vt 0.541667 1.000000
vt 0.625000 0.916667
vt 0.541667 0.916667
vt 0.375000 1.000000
vt 0.458333 0.916667
vt 0.375000 0.916667
vt 0.458333 1.000000
vt 0.375000 0.750000
vt 0.458333 0.833333
vt 0.541667 0.750000
vt 0.541667 0.833333
vt 0.625000 0.750000
vt 0.500000 0.458333
vt 0.375000 0.333333
vt 0.375000 0.250000
vt 0.458333 0.333333
vt 0.541667 0.250000
vt 0.541667 0.333333
vt 0.625000 0.250000
vt 0.541667 0.416667
vt 0.500000 0.416667
vt 0.458333 0.458333
vt 0.458333 0.416667
vt 0.375000 0.000000
vt 0.375000 0.000000
vt 0.625000 0.000000
vt 0.625000 0.416667
vt 0.375000 0.500000
vt 0.375000 0.500000
vt 0.625000 1.000000
vt 0.625000 1.000000
vt 0.625000 0.833333
vt 0.625000 0.833333
vt 0.375000 0.833333
vt 0.625000 0.333333
vt 0.625000 0.333333
vt 0.458333 0.000000
vt 0.625000 0.000000
vt 0.541667 0.500000
vn -1.0000 0.0000 0.0000
vn 0.0000 0.0000 -1.0000
vn 1.0000 0.0000 0.0000
vn 0.0000 0.0000 1.0000
vn 0.0078 0.0269 0.9996
vn -0.9994 0.0345 0.0001
vn -0.0062 0.0000 -1.0000
vn 0.0306 0.0033 -0.9995
vn 0.0306 0.0000 -0.9995
vn 0.0159 0.0000 0.9999
vn -0.0198 0.0000 0.9998
vn 0.0303 0.0000 0.9995
vn 0.0000 -1.0000 0.0000
vn 0.0000 1.0000 0.0000
vn -0.4466 0.0000 -0.8947
vn 0.0203 -0.9996 -0.0194
vn -0.9051 0.4252 0.0043
vn -1.0000 -0.0033 0.0031
vn 0.0287 0.0000 -0.9996
vn 0.0159 -0.0483 0.9987
vn 0.0000 0.8968 -0.4425
vn 0.0218 -0.9998 0.0000
g Cube_Cube.001_None
usemtl None
s off
f 22/1/1 23/2/1 11/3/1
f 8/4/2 28/5/2 24/6/2
f 12/7/3 13/8/3 37/9/3
f 17/10/4 11/11/4 21/12/4
f 19/13/4 1/14/4 14/15/4
f 21/12/4 10/16/4 19/13/4
f 5/17/4 18/18/4 15/19/4
f 12/7/4 18/18/4 13/8/4
f 6/20/4 20/21/4 12/7/4
f 24/6/2 37/9/2 34/22/2
f 23/2/2 25/23/2 3/24/2
f 22/1/2 30/25/2 23/2/2
f 4/26/2 32/27/2 22/1/2
f 33/28/2 34/22/2 35/29/2
f 35/29/2 36/30/2 31/31/2
f 34/22/2 29/32/2 36/30/2
f 48/33/3 47/34/3 60/35/3
f 61/36/5 45/37/5 64/38/5
f 50/39/6 74/40/6 66/41/6
f 48/42/7 54/43/7 58/44/7
f 38/45/7 56/46/7 51/47/7
f 47/48/7 58/44/7 56/46/7
f 42/49/8 55/50/8 50/39/8
f 55/50/9 49/51/9 50/39/9
f 57/52/9 43/53/9 49/51/9
f 74/40/10 61/36/10 71/54/10
f 62/55/11 60/35/11 40/56/11
f 67/57/11 59/58/11 60/35/11
f 69/59/11 41/60/11 59/58/11
f 71/54/4 70/61/4 72/62/4
f 73/63/4 72/62/4 68/64/4
f 66/41/12 71/54/12 73/63/12
f 3/24/13 38/65/13 1/66/13
f 2/67/14 41/60/14 4/26/14
f 25/23/13 40/56/13 3/24/13
f 27/68/14 45/37/14 8/4/14
f 7/69/15 66/41/15 29/32/15
f 7/69/13 42/49/13 44/70/13
f 8/4/14 43/53/14 6/20/14
f 15/19/16 42/49/16 5/17/16
f 17/10/14 39/71/14 2/72/14
f 14/15/13 38/45/13 51/47/13
f 16/73/14 43/53/14 53/74/14
f 18/18/1 52/75/1 15/19/1
f 14/15/3 56/46/3 19/13/3
f 20/21/1 55/50/1 18/18/1
f 19/13/3 58/44/3 21/12/3
f 16/73/1 57/52/1 20/21/1
f 21/12/3 54/43/3 17/10/3
f 26/76/14 41/60/14 63/77/14
f 36/30/13 66/41/13 73/63/13
f 30/25/3 62/55/3 25/23/3
f 35/29/1 70/61/1 33/28/1
f 32/27/3 67/57/3 30/25/3
f 31/31/1 72/62/1 35/29/1
f 26/76/3 69/59/3 32/27/3
f 33/28/1 64/38/1 27/68/1
f 36/30/13 68/64/13 31/31/13
f 3/24/1 1/66/1 10/78/1
f 11/3/1 2/67/1 4/26/1
f 3/24/1 10/78/1 23/2/1
f 10/78/1 11/3/1 23/2/1
f 4/26/1 22/1/1 11/3/1
f 24/6/2 33/28/2 27/68/2
f 27/68/2 8/4/2 24/6/2
f 5/17/3 7/69/3 29/32/3
f 37/9/3 28/5/3 12/7/3
f 28/5/3 8/4/3 6/20/3
f 5/17/3 29/32/3 13/8/3
f 29/32/3 37/9/3 13/8/3
f 6/20/3 12/7/3 28/5/3
f 17/10/4 2/72/4 11/11/4
f 19/13/4 10/16/4 1/14/4
f 21/12/4 11/11/4 10/16/4
f 5/17/4 13/8/4 18/18/4
f 12/7/4 20/21/4 18/18/4
f 6/20/4 16/73/4 20/21/4
f 24/6/2 28/5/2 37/9/2
f 23/2/2 30/25/2 25/23/2
f 22/1/2 32/27/2 30/25/2
f 4/26/2 26/76/2 32/27/2
f 33/28/2 24/6/2 34/22/2
f 35/29/2 34/22/2 36/30/2
f 34/22/2 37/9/2 29/32/2
f 47/34/3 38/65/3 40/56/3
f 60/35/3 59/58/3 48/33/3
f 59/58/3 41/60/3 48/33/3
f 47/34/3 40/56/3 60/35/3
f 41/60/3 39/79/3 48/33/3
f 64/38/4 70/61/4 61/36/4
f 61/36/10 65/80/10 45/37/10
f 66/41/17 44/70/17 42/49/17
f 42/49/18 50/39/18 66/41/18
f 50/39/1 49/51/1 74/40/1
f 74/40/1 49/51/1 65/80/1
f 49/51/1 43/53/1 45/37/1
f 45/37/1 65/80/1 49/51/1
f 48/42/7 39/71/7 54/43/7
f 38/45/7 47/48/7 56/46/7
f 47/48/7 48/42/7 58/44/7
f 42/49/19 52/75/19 55/50/19
f 55/50/9 57/52/9 49/51/9
f 57/52/9 53/74/9 43/53/9
f 74/40/10 65/80/10 61/36/10
f 62/55/11 67/57/11 60/35/11
f 67/57/11 69/59/11 59/58/11
f 69/59/11 63/77/11 41/60/11
f 71/54/4 61/36/4 70/61/4
f 73/63/4 71/54/4 72/62/4
f 66/41/20 74/40/20 71/54/20
f 3/24/13 40/56/13 38/65/13
f 2/67/14 39/79/14 41/60/14
f 25/23/13 62/55/13 40/56/13
f 27/68/14 64/38/14 45/37/14
f 7/69/21 44/70/21 66/41/21
f 7/69/13 5/17/13 42/49/13
f 8/4/14 45/37/14 43/53/14
f 15/19/22 52/75/22 42/49/22
f 17/10/14 54/43/14 39/71/14
f 14/15/13 1/14/13 38/45/13
f 16/73/14 6/20/14 43/53/14
f 18/18/1 55/50/1 52/75/1
f 14/15/3 51/47/3 56/46/3
f 20/21/1 57/52/1 55/50/1
f 19/13/3 56/46/3 58/44/3
f 16/73/1 53/74/1 57/52/1
f 21/12/3 58/44/3 54/43/3
f 26/76/14 4/26/14 41/60/14
f 36/30/13 29/32/13 66/41/13
f 30/25/3 67/57/3 62/55/3
f 35/29/1 72/62/1 70/61/1
f 32/27/3 69/59/3 67/57/3
f 31/31/1 68/64/1 72/62/1
f 26/76/3 63/77/3 69/59/3
f 33/28/1 70/61/1 64/38/1
f 36/30/13 73/63/13 68/64/13
o piso_Cube.002
v -3.949725 -0.981785 3.803300
v 3.923221 -0.981785 3.803300
v -3.949725 -0.981785 -4.119689
v 3.923221 -0.981785 -4.119689
v -3.949725 -1.011785 3.803300
v 3.923221 -1.011785 3.803300
v -3.949725 -1.011785 -4.119689
v 3.923221 -1.011785 -4.119689
vt 1.000000 0.000000
vt 0.000000 1.000000
vt 0.000000 0.000000
vt 0.000000 1.000000
vt 1.000000 0.000000
vt 0.000000 0.000000
vt 1.000000 1.000000
vt 1.000000 1.000000
vn 0.0000 1.0000 0.0000
vn 0.0000 -1.0000 0.0000
vn -1.0000 0.0000 0.0000
vn 0.0000 0.0000 1.0000
vn 1.0000 0.0000 0.0000
vn 0.0000 0.0000 -1.0000
g piso_Cube.002_Material.003
usemtl Material.003
s off
f 76/81/23 77/82/23 75/83/23
f 81/84/24 80/85/24 79/86/24
f 77/82/25 79/86/25 75/83/25
f 75/83/26 80/85/26 76/81/26
f 76/81/27 82/87/27 78/88/27
f 78/88/28 81/84/28 77/82/28
f 76/81/23 78/88/23 77/82/23
f 81/84/24 82/87/24 80/85/24
f 77/82/25 81/84/25 79/86/25
f 75/83/26 79/86/26 80/85/26
f 76/81/27 80/85/27 82/87/27
f 78/88/28 82/87/28 81/84/28
o caja01_Cube.003
v -2.420071 0.933875 -2.622882
v -2.420071 0.933875 -0.112973
v 0.982795 0.933875 -2.622882
v 0.982795 0.933875 -0.112973
v 0.982795 -0.933875 -2.474367
v -2.420071 -0.933875 -2.474367
v -2.420071 -0.933875 0.035543
v 0.982795 -0.933875 0.035543
v -2.504745 0.933452 -2.708474
v -2.505819 0.934293 -0.028454
v 1.067469 0.933452 -2.708474
v 1.068543 0.934293 -0.028454
v 1.068543 -0.934293 -2.558886
v -2.505819 -0.934293 -2.558886
v -2.504745 -0.933452 0.121134
v 1.067469 -0.933452 0.121134
vt 0.000000 0.000000
vt 0.000000 0.000000
vt 0.000000 0.000000
vt 0.000000 0.000000
vt 0.000000 0.000000
vt 0.000000 0.000000
vt 0.000000 0.000000
vt 0.000000 0.000000
vt 0.000000 0.000000
vt 0.000000 0.000000
vt 0.000000 0.000000
vt 0.000000 0.000000
vt 0.000000 0.000000
vt 0.000000 0.000000
vt 0.000000 0.000000
vt 0.000000 0.000000
vn 1.0000 -0.0000 0.0000
vn 0.0000 -0.0793 -0.9969
vn 0.0000 0.0793 0.9969
vn -1.0000 -0.0000 0.0000
vn -1.0000 0.0005 -0.0004
vn 0.0000 0.0798 0.9968
vn 0.0000 -0.0798 -0.9968
vn 1.0000 0.0005 -0.0004
vn 0.0000 1.0000 -0.0049
vn 0.0049 1.0000 0.0000
vn 0.0047 1.0000 -0.0003
vn 0.0000 -1.0000 0.0049
vn 0.0049 -1.0000 0.0000
vn 0.0047 -1.0000 0.0003
vn -1.0000 -0.0005 0.0004
vn 1.0000 -0.0005 0.0004
vn -0.0047 1.0000 -0.0003
vn -0.0049 1.0000 0.0000
vn -0.0047 -1.0000 0.0003
vn -0.0049 -1.0000 0.0000
g caja01_Cube.003_None
usemtl None
s off
f 84/89/29 88/90/29 83/91/29
f 86/92/30 89/93/30 84/89/30
f 83/91/31 87/94/31 85/95/31
f 86/92/32 87/94/32 90/96/32
f 96/97/33 92/98/33 91/99/33
f 97/100/34 94/101/34 92/98/34
f 95/102/35 91/99/35 93/103/35
f 94/101/36 95/102/36 93/103/36
f 85/95/37 91/99/37 83/91/37
f 83/91/38 92/98/38 84/89/38
f 84/89/37 94/101/37 86/92/37
f 85/95/39 94/101/39 93/103/39
f 88/90/40 95/102/40 87/94/40
f 89/93/41 96/97/41 88/90/41
f 90/96/40 97/100/40 89/93/40
f 90/96/42 95/102/42 98/104/42
f 84/89/29 89/93/29 88/90/29
f 86/92/30 90/96/30 89/93/30
f 83/91/31 88/90/31 87/94/31
f 86/92/32 85/95/32 87/94/32
f 96/97/43 97/100/43 92/98/43
f 97/100/34 98/104/34 94/101/34
f 95/102/35 96/97/35 91/99/35
f 94/101/44 98/104/44 95/102/44
f 85/95/37 93/103/37 91/99/37
f 83/91/45 91/99/45 92/98/45
f 84/89/37 92/98/37 94/101/37
f 85/95/46 86/92/46 94/101/46
f 88/90/40 96/97/40 95/102/40
f 89/93/47 97/100/47 96/97/47
f 90/96/40 98/104/40 97/100/40
f 90/96/48 87/94/48 95/102/48
o caja02_Cube.004
v 3.182924 0.933875 -2.622882
v 3.182924 0.933875 -0.112973
v 1.892182 0.933875 -2.622882
v 1.892182 0.933875 -0.112973
v 3.182924 -0.933875 0.035543
v 3.182924 -0.933875 -2.474367
v 1.892182 -0.933875 -2.474367
v 1.892182 -0.933875 0.035543
v 3.267598 0.933452 -2.708474
v 3.268672 0.934293 -0.028454
v 1.807508 0.933452 -2.708474
v 1.806434 0.934293 -0.028454
v 3.267598 -0.933452 0.121134
v 3.268672 -0.934293 -2.558886
v 1.806434 -0.934293 -2.558886
v 1.807508 -0.933452 0.121134
vt 0.000000 0.000000
vt 0.000000 0.000000
vt 0.000000 0.000000
vt 0.000000 0.000000
vt 0.000000 0.000000
vt 0.000000 0.000000
vt 0.000000 0.000000
vt 0.000000 0.000000
vt 0.000000 0.000000
vt 0.000000 0.000000
vt 0.000000 0.000000
vt 0.000000 0.000000
vt 0.000000 0.000000
vt 0.000000 0.000000
vt 0.000000 0.000000
vt 0.000000 0.000000
vn 0.0000 0.0793 0.9969
vn 0.0000 -0.0793 -0.9969
vn -1.0000 0.0000 0.0000
vn 1.0000 -0.0000 0.0000
vn 0.0000 -0.0798 -0.9968
vn 0.0000 0.0798 0.9968
vn 1.0000 0.0005 -0.0004
vn -1.0000 0.0005 -0.0004
vn 0.0047 1.0000 -0.0003
vn 0.0047 -1.0000 0.0003
vn 0.0000 1.0000 -0.0049
vn 0.0049 1.0000 0.0000
vn 0.0000 -1.0000 0.0049
vn 0.0049 -1.0000 0.0000
vn 1.0000 -0.0005 0.0004
vn -1.0000 -0.0005 0.0004
vn -0.0049 1.0000 0.0000
vn -0.0049 -1.0000 0.0000
vn -0.0047 1.0000 -0.0003
vn -0.0047 -1.0000 0.0003
g caja02_Cube.004_None
usemtl None
s off
f 101/105/49 104/106/49 99/107/49
f 100/108/50 106/109/50 102/110/50
f 100/108/51 104/106/51 103/111/51
f 102/110/52 105/112/52 101/105/52
f 112/113/53 109/114/53 107/115/53
f 114/116/54 108/117/54 110/118/54
f 108/117/55 112/113/55 107/115/55
f 113/119/56 110/118/56 109/114/56
f 99/107/57 108/117/57 107/115/57
f 103/111/58 112/113/58 111/120/58
f 99/107/59 109/114/59 101/105/59
f 102/110/59 108/117/59 100/108/59
f 101/105/60 110/118/60 102/110/60
f 105/112/61 112/113/61 104/106/61
f 103/111/61 114/116/61 106/109/61
f 106/109/62 113/119/62 105/112/62
f 101/105/49 105/112/49 104/106/49
f 100/108/50 103/111/50 106/109/50
f 100/108/51 99/107/51 104/106/51
f 102/110/52 106/109/52 105/112/52
f 112/113/53 113/119/53 109/114/53
f 114/116/54 111/120/54 108/117/54
f 108/117/63 111/120/63 112/113/63
f 113/119/64 114/116/64 110/118/64
f 99/107/65 100/108/65 108/117/65
f 103/111/66 104/106/66 112/113/66
f 99/107/59 107/115/59 109/114/59
f 102/110/59 110/118/59 108/117/59
f 101/105/67 109/114/67 110/118/67
f 105/112/61 113/119/61 112/113/61
f 103/111/61 111/120/61 114/116/61
f 106/109/68 114/116/68 113/119/68
o caja03_Cube.005
v -2.420071 0.933875 2.396936
v 0.982795 0.933875 2.396936
v -2.420071 0.933875 0.654764
v 0.982795 0.933875 0.654764
v -2.420071 -0.933875 0.803280
v -2.420071 -0.933875 2.545452
v 0.982795 -0.933875 2.545452
v 0.982795 -0.933875 0.803280
v -2.505819 0.934293 2.481455
v 1.068543 0.934293 2.481455
v -2.504745 0.933452 0.569172
v 1.067469 0.933452 0.569172
v -2.505819 -0.934293 0.718760
v -2.504745 -0.933452 2.631043
v 1.067469 -0.933452 2.631043
v 1.068543 -0.934293 0.718760
vt 0.000000 0.000000
vt 0.000000 0.000000
vt 0.000000 0.000000
vt 0.000000 0.000000
vt 0.000000 0.000000
vt 0.000000 0.000000
vt 0.000000 0.000000
vt 0.000000 0.000000
vt 0.000000 0.000000
vt 0.000000 0.000000
vt 0.000000 0.000000
vt 0.000000 0.000000
vt 0.000000 0.000000
vt 0.000000 0.000000
vt 0.000000 0.000000
vt 0.000000 0.000000
vn -1.0000 0.0000 0.0000
vn 0.0000 0.0793 0.9969
vn 0.0000 -0.0793 -0.9969
vn 1.0000 0.0000 0.0000
vn 1.0000 0.0005 -0.0006
vn 0.0000 -0.0798 -0.9968
vn 0.0000 0.0798 0.9968
vn -1.0000 0.0005 -0.0006
vn 0.0049 1.0000 0.0000
vn 0.0049 -1.0000 0.0000
vn 0.0000 1.0000 -0.0049
vn 0.0045 1.0000 -0.0004
vn 0.0000 -1.0000 0.0049
vn 0.0045 -1.0000 0.0004
vn 1.0000 -0.0005 0.0006
vn -1.0000 -0.0005 0.0006
vn -0.0045 1.0000 -0.0004
vn -0.0045 -1.0000 0.0004
vn -0.0049 1.0000 0.0000
vn -0.0049 -1.0000 0.0000
g caja03_Cube.005_None
usemtl None
s off
f 116/121/69 122/122/69 121/123/69
f 117/124/70 122/122/70 118/125/70
f 116/121/71 120/126/71 115/127/71
f 115/127/72 119/128/72 117/124/72
f 124/129/73 130/130/73 126/131/73
f 126/131/74 127/132/74 125/133/74
f 128/134/75 124/129/75 123/135/75
f 127/132/76 123/135/76 125/133/76
f 117/124/77 123/135/77 115/127/77
f 120/126/78 127/132/78 119/128/78
f 115/127/79 124/129/79 116/121/79
f 118/125/80 124/129/80 126/131/80
f 117/124/79 126/131/79 125/133/79
f 121/123/81 128/134/81 120/126/81
f 121/123/82 130/130/82 129/136/82
f 119/128/81 130/130/81 122/122/81
f 116/121/69 118/125/69 122/122/69
f 117/124/70 119/128/70 122/122/70
f 116/121/71 121/123/71 120/126/71
f 115/127/72 120/126/72 119/128/72
f 124/129/83 129/136/83 130/130/83
f 126/131/74 130/130/74 127/132/74
f 128/134/75 129/136/75 124/129/75
f 127/132/84 128/134/84 123/135/84
f 117/124/85 125/133/85 123/135/85
f 120/126/86 128/134/86 127/132/86
f 115/127/79 123/135/79 124/129/79
f 118/125/87 116/121/87 124/129/87
f 117/124/79 118/125/79 126/131/79
f 121/123/81 129/136/81 128/134/81
f 121/123/88 122/122/88 130/130/88
f 119/128/81 127/132/81 130/130/81
o caja04_Cube.006
v 3.182924 0.933875 2.396936
v 1.892182 0.933875 2.396936
v 3.182924 0.933875 0.654764
v 1.892182 0.933875 0.654764
v 1.892182 -0.933875 2.545452
v 3.182924 -0.933875 2.545452
v 3.182924 -0.933875 0.803280
v 1.892182 -0.933875 0.803280
v 3.268672 0.934293 2.481455
v 1.806434 0.934293 2.481455
v 3.267598 0.933452 0.569172
v 1.807508 0.933452 0.569172
v 1.807508 -0.933452 2.631043
v 3.267598 -0.933452 2.631043
v 3.268672 -0.934293 0.718760
v 1.806434 -0.934293 0.718760
vt 0.000000 0.000000
vt 0.000000 0.000000
vt 0.000000 0.000000
vt 0.000000 0.000000
vt 0.000000 0.000000
vt 0.000000 0.000000
vt 0.000000 0.000000
vt 0.000000 0.000000
vt 0.000000 0.000000
vt 0.000000 0.000000
vt 0.000000 0.000000
vt 0.000000 0.000000
vt 0.000000 0.000000
vt 0.000000 0.000000
vt 0.000000 0.000000
vt 0.000000 0.000000
vn 1.0000 -0.0000 0.0000
vn 0.0000 0.0793 0.9969
vn 0.0000 -0.0793 -0.9969
vn -1.0000 -0.0000 0.0000
vn -1.0000 0.0005 -0.0006
vn 0.0000 -0.0798 -0.9968
vn 0.0000 0.0798 0.9968
vn 1.0000 0.0005 -0.0006
vn 0.0000 1.0000 -0.0049
vn 0.0000 -1.0000 0.0049
vn 0.0045 1.0000 -0.0004
vn 0.0049 1.0000 0.0000
vn 0.0045 -1.0000 0.0004
vn 0.0049 -1.0000 0.0000
vn -1.0000 -0.0005 0.0006
vn 1.0000 -0.0005 0.0006
vn -0.0049 1.0000 0.0000
vn -0.0045 1.0000 -0.0004
vn -0.0049 -1.0000 0.0000
vn -0.0045 -1.0000 0.0004
g caja04_Cube.006_None
usemtl None
s off
f 132/137/89 138/138/89 134/139/89
f 134/139/90 137/140/90 133/141/90
f 131/142/91 135/143/91 132/137/91
f 131/142/92 137/140/92 136/144/92
f 146/145/93 140/146/93 142/147/93
f 145/148/94 142/147/94 141/149/94
f 143/150/95 139/151/95 140/146/95
f 139/151/96 145/148/96 141/149/96
f 131/142/97 140/146/97 139/151/97
f 136/144/98 143/150/98 135/143/98
f 133/141/99 139/151/99 141/149/99
f 134/139/100 140/146/100 132/137/100
f 133/141/97 142/147/97 134/139/97
f 136/144/101 145/148/101 144/152/101
f 135/143/102 146/145/102 138/138/102
f 137/140/98 146/145/98 145/148/98
f 132/137/89 135/143/89 138/138/89
f 134/139/90 138/138/90 137/140/90
f 131/142/91 136/144/91 135/143/91
f 131/142/92 133/141/92 137/140/92
f 146/145/103 143/150/103 140/146/103
f 145/148/94 146/145/94 142/147/94
f 143/150/95 144/152/95 139/151/95
f 139/151/104 144/152/104 145/148/104
f 131/142/97 132/137/97 140/146/97
f 136/144/98 144/152/98 143/150/98
f 133/141/105 131/142/105 139/151/105
f 134/139/106 142/147/106 140/146/106
f 133/141/97 141/149/97 142/147/97
f 136/144/107 137/140/107 145/148/107
f 135/143/108 143/150/108 146/145/108
f 137/140/98 138/138/98 146/145/98
