<?xml version="1.0" encoding="utf-8"?>
<!-- Svg Vector Icons : http://www.onlinewebfonts.com/icon -->
<!DOCTYPE svg PUBLIC "-//W3C//DTD SVG 1.1//EN" "http://www.w3.org/Graphics/SVG/1.1/DTD/svg11.dtd">
<svg version="1.1" xmlns="http://www.w3.org/2000/svg" xmlns:xlink="http://www.w3.org/1999/xlink" x="0px" y="0px" viewBox="0 0 1000 1000" enable-background="new 0 0 1000 1000" xml:space="preserve">
<metadata> Svg Vector Icons : http://www.onlinewebfonts.com/icon </metadata>
<g><g transform="translate(0.000000,511.000000) scale(0.100000,-0.100000)"><path d="M6331.5,3516.4c-117.3-23.9-241.7-122.1-296.8-234.5c-57.4-117.3-59.8-325.5-2.4-438c23.9-47.9,521.7-548.1,1139.2-1148.8l1098.5-1065l-3929.8-12l-3929.8-12l-86.2-59.8c-47.9-31.1-114.9-100.5-146-150.8C22.8,156.3,106.6-162,360.3-298.4l100.5-52.7l3872.3-7.2l3872.3-4.8L7145.2-1440c-636.6-646.2-1077-1112.9-1103.3-1165.5c-28.7-64.6-40.7-134-33.5-236.9c9.6-196.2,86.2-315.9,258.5-402.1c167.5-81.4,292-81.4,447.5,2.4c158,88.5,3075.4,3058.6,3142.4,3202.2c55.1,117.3,57.4,268,7.2,392.5c-28.8,74.2-392.5,440.4-1584.4,1596.3c-852,825.7-1579.6,1514.9-1620.2,1531.7C6556.5,3523.6,6434.4,3535.6,6331.5,3516.4z"/></g></g>
</svg>